<svg xmlns="http://www.w3.org/2000/svg" xmlns:xlink="http://www.w3.org/1999/xlink" width="500" zoomAndPan="magnify" viewBox="0 0 375 374.999991" height="500" preserveAspectRatio="xMidYMid meet" version="1.2"><defs/><g id="e5d22e72a2"><rect x="0" width="375" y="0" height="374.999991" style="fill:#ffffff;fill-opacity:1;stroke:none;"/><rect x="0" width="375" y="0" height="374.999991" style="fill:#000000;fill-opacity:1;stroke:none;"/><g style="fill:#ffffff;fill-opacity:1;"><g transform="translate(6.179272, 289.650486)"><path style="stroke:none" d="M 52.625 -20.4375 C 52.625 -7.488281 51.601562 5.625 49.5625 18.90625 C 47.519531 32.1875 43.941406 44.617188 38.828125 56.203125 C 33.722656 67.785156 26.738281 78.175781 17.875 87.375 C 9.019531 96.570312 -2.21875 103.722656 -15.84375 108.828125 L -17.375 104.234375 C 2.039062 96.398438 15.492188 84.390625 22.984375 68.203125 C 30.484375 52.023438 34.234375 34.226562 34.234375 14.8125 C 34.234375 6.300781 33.722656 -2.039062 32.703125 -10.21875 C 31.679688 -18.394531 30.316406 -26.738281 28.609375 -35.25 L 26.0625 -49.046875 C 24.695312 -57.222656 23.414062 -65.398438 22.21875 -73.578125 C 21.03125 -81.753906 20.4375 -90.097656 20.4375 -98.609375 C 20.4375 -106.441406 20.863281 -114.101562 21.71875 -121.59375 C 22.570312 -129.09375 23.847656 -136.59375 25.546875 -144.09375 C 14.648438 -143.40625 4.09375 -140.847656 -6.125 -136.421875 C -16.34375 -131.992188 -25.375 -126.035156 -33.21875 -118.546875 L -39.34375 -119.046875 C -29.46875 -127.910156 -19.25 -134.894531 -8.6875 -140 C 1.875 -145.113281 13.96875 -148.519531 27.59375 -150.21875 C 37.46875 -184.28125 54.328125 -209.484375 78.171875 -225.828125 C 102.015625 -242.179688 131.3125 -250.359375 166.0625 -250.359375 L 213.0625 -250.359375 C 205.570312 -248.316406 200.546875 -244.316406 197.984375 -238.359375 C 195.429688 -232.398438 194.15625 -226.015625 194.15625 -219.203125 L 194.15625 -32.703125 C 194.15625 -25.546875 195.429688 -18.898438 197.984375 -12.765625 C 200.546875 -6.640625 205.570312 -2.382812 213.0625 0 L 144.09375 0 C 151.925781 -2.039062 157.117188 -6.210938 159.671875 -12.515625 C 162.222656 -18.816406 163.5 -25.546875 163.5 -32.703125 L 163.5 -73.0625 C 163.5 -76.46875 162.820312 -79.707031 161.46875 -82.78125 C 156.695312 -93 150.304688 -101.851562 142.296875 -109.34375 C 134.296875 -116.832031 125.441406 -123.128906 115.734375 -128.234375 C 106.023438 -133.347656 95.804688 -137.179688 85.078125 -139.734375 C 74.347656 -142.296875 63.703125 -143.75 53.140625 -144.09375 C 51.429688 -136.59375 50.320312 -129.179688 49.8125 -121.859375 C 49.300781 -114.535156 49.046875 -107.128906 49.046875 -99.640625 C 49.046875 -94.867188 49.128906 -89.925781 49.296875 -84.8125 C 49.472656 -79.707031 49.734375 -74.769531 50.078125 -70 L 51.609375 -50.078125 C 51.953125 -45.304688 52.207031 -40.453125 52.375 -35.515625 C 52.539062 -30.578125 52.625 -25.550781 52.625 -20.4375 Z M 54.15625 -150.21875 C 65.0625 -149.875 75.878906 -148.253906 86.609375 -145.359375 C 97.335938 -142.460938 107.554688 -138.457031 117.265625 -133.34375 C 126.972656 -128.238281 135.828125 -121.941406 143.828125 -114.453125 C 151.835938 -106.960938 158.394531 -98.273438 163.5 -88.390625 L 163.5 -219.203125 C 163.5 -221.921875 163.414062 -224.726562 163.25 -227.625 C 163.082031 -230.519531 162.484375 -233.242188 161.453125 -235.796875 C 160.429688 -238.359375 158.898438 -240.488281 156.859375 -242.1875 C 154.816406 -243.894531 152.09375 -244.75 148.6875 -244.75 C 135.738281 -244.75 123.984375 -242.019531 113.421875 -236.5625 C 102.867188 -231.113281 93.585938 -223.875 85.578125 -214.84375 C 77.578125 -205.820312 70.9375 -195.691406 65.65625 -184.453125 C 60.375 -173.210938 56.539062 -161.800781 54.15625 -150.21875 Z M 54.15625 -150.21875 "/></g></g><g style="fill:#ffffff;fill-opacity:1;"><g transform="translate(147.705532, 289.650486)"><path style="stroke:none" d="M 67.453125 -31.671875 C 67.453125 -24.859375 68.726562 -18.472656 71.28125 -12.515625 C 73.832031 -6.554688 78.515625 -2.382812 85.328125 0 L 17.890625 0 C 25.378906 -2.382812 30.316406 -6.726562 32.703125 -13.03125 C 35.085938 -19.332031 36.28125 -25.890625 36.28125 -32.703125 L 36.28125 -218.6875 C 36.28125 -225.5 35 -231.96875 32.4375 -238.09375 C 29.882812 -244.226562 25.035156 -248.316406 17.890625 -250.359375 L 109.859375 -250.359375 C 122.460938 -250.359375 134.382812 -248.992188 145.625 -246.265625 C 156.863281 -243.546875 166.738281 -239.207031 175.25 -233.25 C 183.769531 -227.289062 190.5 -219.457031 195.4375 -209.75 C 200.375 -200.039062 202.84375 -188.203125 202.84375 -174.234375 C 202.84375 -160.953125 200.03125 -149.457031 194.40625 -139.75 C 188.789062 -130.039062 181.382812 -122.117188 172.1875 -115.984375 C 162.988281 -109.859375 152.597656 -105.347656 141.015625 -102.453125 C 129.441406 -99.554688 117.691406 -98.109375 105.765625 -98.109375 L 67.453125 -98.109375 Z M 67.453125 -102.1875 L 101.171875 -102.1875 C 123.304688 -102.1875 140.503906 -108.742188 152.765625 -121.859375 C 165.035156 -134.972656 171.171875 -152.429688 171.171875 -174.234375 C 171.171875 -196.710938 165.125 -214.335938 153.03125 -227.109375 C 140.9375 -239.890625 123.648438 -246.28125 101.171875 -246.28125 L 67.453125 -246.28125 Z M 67.453125 -102.1875 "/></g></g><g style="fill:#ffffff;fill-opacity:1;"><g transform="translate(232.276236, 278.56127)"><path style="stroke:none" d="M 9.359375 -20.890625 L 18.328125 0 L 15.875 0 L 13.515625 -5.65625 L 5 -5.65625 L 2.59375 0 L 0.15625 0 Z M 5.90625 -7.71875 L 12.640625 -7.71875 L 9.3125 -15.71875 Z M 3.59375 -19.953125 Z M 3.59375 -19.953125 "/></g></g><g style="fill:#ffffff;fill-opacity:1;"><g transform="translate(250.760868, 278.56127)"><path style="stroke:none" d="M 4.078125 -1.75 L 4.015625 -1.75 L 4.015625 6.984375 L 1.90625 6.984375 L 1.90625 -12.4375 L 4.015625 -12.4375 L 4.015625 -10.65625 L 4.078125 -10.65625 C 4.585938 -11.34375 5.210938 -11.867188 5.953125 -12.234375 C 6.691406 -12.597656 7.492188 -12.78125 8.359375 -12.78125 C 9.472656 -12.78125 10.488281 -12.488281 11.40625 -11.90625 C 12.320312 -11.320312 13.035156 -10.519531 13.546875 -9.5 C 14.054688 -8.488281 14.3125 -7.382812 14.3125 -6.1875 C 14.3125 -4.988281 14.0625 -3.878906 13.5625 -2.859375 C 13.070312 -1.847656 12.363281 -1.0625 11.4375 -0.5 C 10.507812 0.0625 9.472656 0.34375 8.328125 0.34375 C 7.484375 0.34375 6.691406 0.164062 5.953125 -0.1875 C 5.210938 -0.539062 4.585938 -1.0625 4.078125 -1.75 Z M 7.9375 -10.8125 C 7.25 -10.8125 6.59375 -10.625 5.96875 -10.25 C 5.351562 -9.882812 4.859375 -9.347656 4.484375 -8.640625 C 4.109375 -7.941406 3.921875 -7.175781 3.921875 -6.34375 C 3.921875 -5.019531 4.289062 -3.898438 5.03125 -2.984375 C 5.78125 -2.066406 6.765625 -1.609375 7.984375 -1.609375 C 8.816406 -1.609375 9.550781 -1.804688 10.1875 -2.203125 C 10.820312 -2.597656 11.304688 -3.15625 11.640625 -3.875 C 11.972656 -4.601562 12.140625 -5.421875 12.140625 -6.328125 C 12.140625 -7.648438 11.75 -8.726562 10.96875 -9.5625 C 10.195312 -10.394531 9.1875 -10.8125 7.9375 -10.8125 Z M 7.9375 -10.8125 "/></g></g><g style="fill:#ffffff;fill-opacity:1;"><g transform="translate(266.01929, 278.56127)"><path style="stroke:none" d="M 11.953125 0 L 9.84375 0 L 9.84375 -7.25 C 9.84375 -8.5 9.648438 -9.40625 9.265625 -9.96875 C 8.890625 -10.53125 8.207031 -10.8125 7.21875 -10.8125 C 6.09375 -10.8125 5.296875 -10.421875 4.828125 -9.640625 C 4.359375 -8.867188 4.125 -7.691406 4.125 -6.109375 L 4.125 0 L 2.015625 0 L 2.015625 -12.4375 L 4.125 -12.4375 L 4.125 -10.921875 L 4.171875 -10.921875 C 4.617188 -11.523438 5.128906 -11.984375 5.703125 -12.296875 C 6.273438 -12.617188 6.945312 -12.78125 7.71875 -12.78125 C 9.113281 -12.78125 10.164062 -12.347656 10.875 -11.484375 C 11.59375 -10.628906 11.953125 -9.304688 11.953125 -7.515625 Z M 11.953125 0 "/></g></g><g style="fill:#ffffff;fill-opacity:1;"><g transform="translate(279.981928, 278.56127)"><path style="stroke:none" d="M 11.25 -10.65625 L 11.25 -12.4375 L 13.359375 -12.4375 L 13.359375 0 L 11.25 0 L 11.25 -1.71875 L 11.1875 -1.71875 C 10.09375 -0.34375 8.664062 0.34375 6.90625 0.34375 C 5.175781 0.34375 3.75 -0.289062 2.625 -1.5625 C 1.507812 -2.832031 0.953125 -4.375 0.953125 -6.1875 C 0.953125 -8.09375 1.515625 -9.664062 2.640625 -10.90625 C 3.773438 -12.15625 5.207031 -12.78125 6.9375 -12.78125 C 7.800781 -12.78125 8.597656 -12.59375 9.328125 -12.21875 C 10.054688 -11.851562 10.675781 -11.332031 11.1875 -10.65625 Z M 7.171875 -10.8125 C 6.035156 -10.8125 5.078125 -10.378906 4.296875 -9.515625 C 3.515625 -8.660156 3.125 -7.601562 3.125 -6.34375 C 3.125 -5.007812 3.503906 -3.882812 4.265625 -2.96875 C 5.035156 -2.0625 6.007812 -1.609375 7.1875 -1.609375 C 8.445312 -1.609375 9.453125 -2.039062 10.203125 -2.90625 C 10.960938 -3.769531 11.34375 -4.910156 11.34375 -6.328125 C 11.34375 -7.609375 10.953125 -8.675781 10.171875 -9.53125 C 9.398438 -10.382812 8.398438 -10.8125 7.171875 -10.8125 Z M 7.171875 -10.8125 "/></g></g><g style="fill:#ffffff;fill-opacity:1;"><g transform="translate(295.240351, 278.56127)"><path style="stroke:none" d="M 4.234375 -16.90625 L 4.234375 -12.4375 L 6.453125 -12.4375 L 6.453125 -10.46875 L 4.234375 -10.46875 L 4.234375 0 L 2.109375 0 L 2.109375 -10.46875 L 0.8125 -10.46875 L 0.8125 -12.4375 L 2.109375 -12.4375 L 2.109375 -16.90625 Z M 4.234375 -16.90625 "/></g></g><g style="fill:#ffffff;fill-opacity:1;"><g transform="translate(301.587011, 278.56127)"><path style="stroke:none" d="M 2.4375 -12.4375 L 6.140625 -4.078125 L 9.84375 -12.4375 L 12.21875 -12.4375 L 6.140625 0.8125 L 0.03125 -12.4375 Z M 2.59375 0 Z M 2.59375 0 "/></g></g><g style="fill:#ffffff;fill-opacity:1;"><g transform="translate(313.830759, 278.56127)"><path style="stroke:none" d="M 11.25 -10.65625 L 11.25 -12.4375 L 13.359375 -12.4375 L 13.359375 0 L 11.25 0 L 11.25 -1.71875 L 11.1875 -1.71875 C 10.09375 -0.34375 8.664062 0.34375 6.90625 0.34375 C 5.175781 0.34375 3.75 -0.289062 2.625 -1.5625 C 1.507812 -2.832031 0.953125 -4.375 0.953125 -6.1875 C 0.953125 -8.09375 1.515625 -9.664062 2.640625 -10.90625 C 3.773438 -12.15625 5.207031 -12.78125 6.9375 -12.78125 C 7.800781 -12.78125 8.597656 -12.59375 9.328125 -12.21875 C 10.054688 -11.851562 10.675781 -11.332031 11.1875 -10.65625 Z M 7.171875 -10.8125 C 6.035156 -10.8125 5.078125 -10.378906 4.296875 -9.515625 C 3.515625 -8.660156 3.125 -7.601562 3.125 -6.34375 C 3.125 -5.007812 3.503906 -3.882812 4.265625 -2.96875 C 5.035156 -2.0625 6.007812 -1.609375 7.1875 -1.609375 C 8.445312 -1.609375 9.453125 -2.039062 10.203125 -2.90625 C 10.960938 -3.769531 11.34375 -4.910156 11.34375 -6.328125 C 11.34375 -7.609375 10.953125 -8.675781 10.171875 -9.53125 C 9.398438 -10.382812 8.398438 -10.8125 7.171875 -10.8125 Z M 7.171875 -10.8125 "/></g></g><g style="fill:#ffffff;fill-opacity:1;"><g transform="translate(152.013449, 314.517758)"><path style="stroke:none" d="M 12.171875 -19.953125 L 12.171875 -17.875 L 7.296875 -17.875 L 7.296875 0 L 5.078125 0 L 5.078125 -17.875 L 0.265625 -17.875 L 0.265625 -19.953125 Z M 12.171875 -19.953125 "/></g></g><g style="fill:#ffffff;fill-opacity:1;"><g transform="translate(161.797664, 314.517758)"><path style="stroke:none" d="M 12.828125 -5.765625 L 3.0625 -5.765625 C 3.101562 -4.535156 3.507812 -3.535156 4.28125 -2.765625 C 5.0625 -1.992188 6.015625 -1.609375 7.140625 -1.609375 C 7.929688 -1.609375 8.628906 -1.8125 9.234375 -2.21875 C 9.847656 -2.625 10.410156 -3.273438 10.921875 -4.171875 L 12.71875 -3.140625 C 12.125 -2.035156 11.335938 -1.175781 10.359375 -0.5625 C 9.378906 0.0390625 8.253906 0.34375 6.984375 0.34375 C 5.765625 0.34375 4.6875 0.0507812 3.75 -0.53125 C 2.820312 -1.113281 2.113281 -1.894531 1.625 -2.875 C 1.144531 -3.851562 0.90625 -4.914062 0.90625 -6.0625 C 0.90625 -7.332031 1.144531 -8.476562 1.625 -9.5 C 2.113281 -10.519531 2.816406 -11.320312 3.734375 -11.90625 C 4.648438 -12.488281 5.71875 -12.78125 6.9375 -12.78125 C 8.113281 -12.78125 9.15625 -12.492188 10.0625 -11.921875 C 10.96875 -11.347656 11.660156 -10.554688 12.140625 -9.546875 C 12.617188 -8.546875 12.859375 -7.414062 12.859375 -6.15625 C 12.859375 -6.039062 12.847656 -5.910156 12.828125 -5.765625 Z M 10.609375 -7.5625 C 10.429688 -8.53125 10 -9.3125 9.3125 -9.90625 C 8.625 -10.507812 7.835938 -10.8125 6.953125 -10.8125 C 6.085938 -10.8125 5.273438 -10.5 4.515625 -9.875 C 3.765625 -9.25 3.316406 -8.476562 3.171875 -7.5625 Z M 10.609375 -7.5625 "/></g></g><g style="fill:#ffffff;fill-opacity:1;"><g transform="translate(175.5223, 314.517758)"><path style="stroke:none" d="M 11.25 -8.734375 L 11.1875 -8.734375 C 10.726562 -9.347656 10.164062 -9.847656 9.5 -10.234375 C 8.84375 -10.617188 8.117188 -10.8125 7.328125 -10.8125 C 6.085938 -10.8125 5.046875 -10.363281 4.203125 -9.46875 C 3.359375 -8.570312 2.9375 -7.488281 2.9375 -6.21875 C 2.9375 -4.945312 3.34375 -3.859375 4.15625 -2.953125 C 4.96875 -2.054688 5.988281 -1.609375 7.21875 -1.609375 C 8.125 -1.609375 8.894531 -1.796875 9.53125 -2.171875 C 10.175781 -2.554688 10.753906 -3.082031 11.265625 -3.75 L 11.328125 -3.75 L 11.328125 -0.921875 C 10.742188 -0.515625 10.125 -0.203125 9.46875 0.015625 C 8.8125 0.234375 8.113281 0.34375 7.375 0.34375 C 6.195312 0.34375 5.09375 0.0625 4.0625 -0.5 C 3.03125 -1.0625 2.222656 -1.847656 1.640625 -2.859375 C 1.054688 -3.878906 0.765625 -5 0.765625 -6.21875 C 0.765625 -7.363281 1.050781 -8.441406 1.625 -9.453125 C 2.195312 -10.472656 3.003906 -11.28125 4.046875 -11.875 C 5.085938 -12.476562 6.207031 -12.78125 7.40625 -12.78125 C 8.039062 -12.78125 8.660156 -12.691406 9.265625 -12.515625 C 9.878906 -12.335938 10.539062 -12.007812 11.25 -11.53125 Z M 11.25 -8.734375 "/></g></g><g style="fill:#ffffff;fill-opacity:1;"><g transform="translate(188.109825, 314.517758)"><path style="stroke:none" d="M 4.125 -21.828125 L 4.125 -10.984375 L 4.171875 -10.921875 C 4.617188 -11.523438 5.125 -11.984375 5.6875 -12.296875 C 6.25 -12.617188 6.925781 -12.78125 7.71875 -12.78125 C 9.09375 -12.78125 10.140625 -12.351562 10.859375 -11.5 C 11.585938 -10.65625 11.953125 -9.328125 11.953125 -7.515625 L 11.953125 0 L 9.84375 0 L 9.84375 -7.25 C 9.84375 -8.5 9.648438 -9.40625 9.265625 -9.96875 C 8.890625 -10.53125 8.207031 -10.8125 7.21875 -10.8125 C 6.113281 -10.8125 5.320312 -10.429688 4.84375 -9.671875 C 4.363281 -8.921875 4.125 -7.742188 4.125 -6.140625 L 4.125 0 L 2.015625 0 L 2.015625 -21.828125 Z M 4.125 -21.828125 "/></g></g><g style="fill:#ffffff;fill-opacity:1;"><g transform="translate(202.072463, 314.517758)"><path style="stroke:none" d=""/></g></g><g style="fill:#ffffff;fill-opacity:1;"><g transform="translate(209.582627, 314.517758)"><path style="stroke:none" d="M 17.21875 -15.578125 C 16.375 -16.421875 15.425781 -17.070312 14.375 -17.53125 C 13.320312 -17.988281 12.242188 -18.21875 11.140625 -18.21875 C 9.722656 -18.21875 8.390625 -17.835938 7.140625 -17.078125 C 5.890625 -16.328125 4.898438 -15.316406 4.171875 -14.046875 C 3.453125 -12.773438 3.09375 -11.414062 3.09375 -9.96875 C 3.09375 -8.5625 3.457031 -7.210938 4.1875 -5.921875 C 4.925781 -4.640625 5.921875 -3.617188 7.171875 -2.859375 C 8.421875 -2.097656 9.757812 -1.71875 11.1875 -1.71875 C 12.257812 -1.71875 13.320312 -1.945312 14.375 -2.40625 C 15.425781 -2.863281 16.375 -3.515625 17.21875 -4.359375 L 17.21875 -1.609375 C 16.375 -0.992188 15.4375 -0.515625 14.40625 -0.171875 C 13.375 0.171875 12.328125 0.34375 11.265625 0.34375 C 9.503906 0.34375 7.816406 -0.09375 6.203125 -0.96875 C 4.585938 -1.851562 3.296875 -3.085938 2.328125 -4.671875 C 1.359375 -6.265625 0.875 -8.003906 0.875 -9.890625 C 0.875 -11.765625 1.335938 -13.5 2.265625 -15.09375 C 3.203125 -16.6875 4.476562 -17.953125 6.09375 -18.890625 C 7.707031 -19.828125 9.429688 -20.296875 11.265625 -20.296875 C 12.398438 -20.296875 13.503906 -20.109375 14.578125 -19.734375 C 15.648438 -19.359375 16.53125 -18.890625 17.21875 -18.328125 Z M 17.21875 -15.578125 "/></g></g><g style="fill:#ffffff;fill-opacity:1;"><g transform="translate(228.225894, 314.517758)"><path style="stroke:none" d="M 0.90625 -6.1875 C 0.90625 -7.375 1.191406 -8.476562 1.765625 -9.5 C 2.347656 -10.519531 3.140625 -11.320312 4.140625 -11.90625 C 5.148438 -12.488281 6.25 -12.78125 7.4375 -12.78125 C 8.613281 -12.78125 9.695312 -12.488281 10.6875 -11.90625 C 11.6875 -11.320312 12.484375 -10.519531 13.078125 -9.5 C 13.671875 -8.488281 13.96875 -7.382812 13.96875 -6.1875 C 13.96875 -5.007812 13.675781 -3.910156 13.09375 -2.890625 C 12.507812 -1.878906 11.710938 -1.085938 10.703125 -0.515625 C 9.703125 0.0546875 8.613281 0.34375 7.4375 0.34375 C 6.25 0.34375 5.148438 0.0507812 4.140625 -0.53125 C 3.128906 -1.113281 2.335938 -1.910156 1.765625 -2.921875 C 1.191406 -3.929688 0.90625 -5.019531 0.90625 -6.1875 Z M 7.40625 -10.8125 C 6.15625 -10.8125 5.109375 -10.363281 4.265625 -9.46875 C 3.429688 -8.582031 3.015625 -7.5 3.015625 -6.21875 C 3.015625 -5.257812 3.242188 -4.414062 3.703125 -3.6875 C 4.160156 -2.957031 4.71875 -2.425781 5.375 -2.09375 C 6.039062 -1.769531 6.726562 -1.609375 7.4375 -1.609375 C 8.25 -1.609375 8.988281 -1.796875 9.65625 -2.171875 C 10.320312 -2.554688 10.851562 -3.101562 11.25 -3.8125 C 11.644531 -4.53125 11.84375 -5.332031 11.84375 -6.21875 C 11.84375 -7.03125 11.660156 -7.785156 11.296875 -8.484375 C 10.941406 -9.191406 10.421875 -9.753906 9.734375 -10.171875 C 9.046875 -10.597656 8.269531 -10.8125 7.40625 -10.8125 Z M 7.40625 -10.8125 "/></g></g><g style="fill:#ffffff;fill-opacity:1;"><g transform="translate(243.087641, 314.517758)"><path style="stroke:none" d="M 11.953125 0 L 9.84375 0 L 9.84375 -7.25 C 9.84375 -8.5 9.648438 -9.40625 9.265625 -9.96875 C 8.890625 -10.53125 8.207031 -10.8125 7.21875 -10.8125 C 6.09375 -10.8125 5.296875 -10.421875 4.828125 -9.640625 C 4.359375 -8.867188 4.125 -7.691406 4.125 -6.109375 L 4.125 0 L 2.015625 0 L 2.015625 -12.4375 L 4.125 -12.4375 L 4.125 -10.921875 L 4.171875 -10.921875 C 4.617188 -11.523438 5.128906 -11.984375 5.703125 -12.296875 C 6.273438 -12.617188 6.945312 -12.78125 7.71875 -12.78125 C 9.113281 -12.78125 10.164062 -12.347656 10.875 -11.484375 C 11.59375 -10.628906 11.953125 -9.304688 11.953125 -7.515625 Z M 11.953125 0 "/></g></g><g style="fill:#ffffff;fill-opacity:1;"><g transform="translate(257.050279, 314.517758)"><path style="stroke:none" d="M 7.03125 -9.546875 C 6.84375 -9.953125 6.597656 -10.265625 6.296875 -10.484375 C 5.992188 -10.703125 5.675781 -10.8125 5.34375 -10.8125 C 4.957031 -10.8125 4.601562 -10.675781 4.28125 -10.40625 C 3.96875 -10.132812 3.8125 -9.8125 3.8125 -9.4375 C 3.8125 -8.71875 4.503906 -8.101562 5.890625 -7.59375 C 7.273438 -7.09375 8.234375 -6.539062 8.765625 -5.9375 C 9.304688 -5.34375 9.578125 -4.597656 9.578125 -3.703125 C 9.578125 -3.015625 9.414062 -2.367188 9.09375 -1.765625 C 8.78125 -1.171875 8.289062 -0.671875 7.625 -0.265625 C 6.96875 0.140625 6.21875 0.34375 5.375 0.34375 C 4.34375 0.34375 3.441406 0.0703125 2.671875 -0.46875 C 1.898438 -1.019531 1.335938 -1.796875 0.984375 -2.796875 L 2.859375 -3.59375 C 3.171875 -2.851562 3.523438 -2.335938 3.921875 -2.046875 C 4.328125 -1.753906 4.816406 -1.609375 5.390625 -1.609375 C 5.992188 -1.609375 6.476562 -1.789062 6.84375 -2.15625 C 7.21875 -2.519531 7.40625 -2.972656 7.40625 -3.515625 C 7.40625 -3.972656 7.238281 -4.375 6.90625 -4.71875 C 6.570312 -5.0625 5.957031 -5.410156 5.0625 -5.765625 C 4.175781 -6.117188 3.484375 -6.472656 2.984375 -6.828125 C 2.210938 -7.390625 1.816406 -8.203125 1.796875 -9.265625 C 1.796875 -10.242188 2.148438 -11.070312 2.859375 -11.75 C 3.566406 -12.4375 4.445312 -12.78125 5.5 -12.78125 C 6.164062 -12.78125 6.804688 -12.566406 7.421875 -12.140625 C 8.046875 -11.710938 8.507812 -11.15625 8.8125 -10.46875 Z M 7.03125 -9.546875 "/></g></g><g style="fill:#ffffff;fill-opacity:1;"><g transform="translate(267.601585, 314.517758)"><path style="stroke:none" d="M 3.96875 -12.4375 L 3.96875 -5.3125 C 3.96875 -4.007812 4.171875 -3.066406 4.578125 -2.484375 C 4.984375 -1.898438 5.710938 -1.609375 6.765625 -1.609375 C 7.804688 -1.609375 8.535156 -1.894531 8.953125 -2.46875 C 9.367188 -3.039062 9.578125 -3.957031 9.578125 -5.21875 L 9.578125 -12.4375 L 11.6875 -12.4375 L 11.6875 -5.125 C 11.6875 -3.332031 11.273438 -1.972656 10.453125 -1.046875 C 9.640625 -0.117188 8.410156 0.34375 6.765625 0.34375 C 5.128906 0.34375 3.898438 -0.117188 3.078125 -1.046875 C 2.265625 -1.984375 1.859375 -3.34375 1.859375 -5.125 L 1.859375 -12.4375 Z M 3.96875 -12.4375 "/></g></g><g style="fill:#ffffff;fill-opacity:1;"><g transform="translate(281.141118, 314.517758)"><path style="stroke:none" d="M 4.078125 -21.828125 L 4.078125 0 L 1.953125 0 L 1.953125 -21.828125 Z M 4.078125 -21.828125 "/></g></g><g style="fill:#ffffff;fill-opacity:1;"><g transform="translate(287.170449, 314.517758)"><path style="stroke:none" d="M 4.234375 -16.90625 L 4.234375 -12.4375 L 6.453125 -12.4375 L 6.453125 -10.46875 L 4.234375 -10.46875 L 4.234375 0 L 2.109375 0 L 2.109375 -10.46875 L 0.8125 -10.46875 L 0.8125 -12.4375 L 2.109375 -12.4375 L 2.109375 -16.90625 Z M 4.234375 -16.90625 "/></g></g><g style="fill:#ffffff;fill-opacity:1;"><g transform="translate(293.517109, 314.517758)"><path style="stroke:none" d="M 11.25 -10.65625 L 11.25 -12.4375 L 13.359375 -12.4375 L 13.359375 0 L 11.25 0 L 11.25 -1.71875 L 11.1875 -1.71875 C 10.09375 -0.34375 8.664062 0.34375 6.90625 0.34375 C 5.175781 0.34375 3.75 -0.289062 2.625 -1.5625 C 1.507812 -2.832031 0.953125 -4.375 0.953125 -6.1875 C 0.953125 -8.09375 1.515625 -9.664062 2.640625 -10.90625 C 3.773438 -12.15625 5.207031 -12.78125 6.9375 -12.78125 C 7.800781 -12.78125 8.597656 -12.59375 9.328125 -12.21875 C 10.054688 -11.851562 10.675781 -11.332031 11.1875 -10.65625 Z M 7.171875 -10.8125 C 6.035156 -10.8125 5.078125 -10.378906 4.296875 -9.515625 C 3.515625 -8.660156 3.125 -7.601562 3.125 -6.34375 C 3.125 -5.007812 3.503906 -3.882812 4.265625 -2.96875 C 5.035156 -2.0625 6.007812 -1.609375 7.1875 -1.609375 C 8.445312 -1.609375 9.453125 -2.039062 10.203125 -2.90625 C 10.960938 -3.769531 11.34375 -4.910156 11.34375 -6.328125 C 11.34375 -7.609375 10.953125 -8.675781 10.171875 -9.53125 C 9.398438 -10.382812 8.398438 -10.8125 7.171875 -10.8125 Z M 7.171875 -10.8125 "/></g></g><g style="fill:#ffffff;fill-opacity:1;"><g transform="translate(308.775532, 314.517758)"><path style="stroke:none" d="M 11.953125 0 L 9.84375 0 L 9.84375 -7.25 C 9.84375 -8.5 9.648438 -9.40625 9.265625 -9.96875 C 8.890625 -10.53125 8.207031 -10.8125 7.21875 -10.8125 C 6.09375 -10.8125 5.296875 -10.421875 4.828125 -9.640625 C 4.359375 -8.867188 4.125 -7.691406 4.125 -6.109375 L 4.125 0 L 2.015625 0 L 2.015625 -12.4375 L 4.125 -12.4375 L 4.125 -10.921875 L 4.171875 -10.921875 C 4.617188 -11.523438 5.128906 -11.984375 5.703125 -12.296875 C 6.273438 -12.617188 6.945312 -12.78125 7.71875 -12.78125 C 9.113281 -12.78125 10.164062 -12.347656 10.875 -11.484375 C 11.59375 -10.628906 11.953125 -9.304688 11.953125 -7.515625 Z M 11.953125 0 "/></g></g><g style="fill:#ffffff;fill-opacity:1;"><g transform="translate(322.73817, 314.517758)"><path style="stroke:none" d="M 4.234375 -16.90625 L 4.234375 -12.4375 L 6.453125 -12.4375 L 6.453125 -10.46875 L 4.234375 -10.46875 L 4.234375 0 L 2.109375 0 L 2.109375 -10.46875 L 0.8125 -10.46875 L 0.8125 -12.4375 L 2.109375 -12.4375 L 2.109375 -16.90625 Z M 4.234375 -16.90625 "/></g></g></g></svg>